<?xml version="1.0" encoding="utf-8"?>
<!-- Generator: Adobe Illustrator 19.1.0, SVG Export Plug-In . SVG Version: 6.00 Build 0)  -->
<svg version="1.1" baseProfile="basic" id="Layer_1"
	 xmlns="http://www.w3.org/2000/svg" xmlns:xlink="http://www.w3.org/1999/xlink" x="0px" y="0px" viewBox="0 0 432 288"
	 xml:space="preserve">
<path fill="none" stroke="#000000" stroke-miterlimit="10" d="M52.2-157.9L52.2-157.9c10,22.8,33.7,36.4,58.4,33.7l0,0
	c49.3-5.4,81.5,50.4,52.2,90.5l0,0c-14.7,20.1-14.7,47.4,0,67.4l0,0c29.3,40-2.9,95.8-52.2,90.5l0,0c-24.7-2.7-48.4,10.9-58.4,33.7
	l0,0c-20,45.4-84.4,45.4-104.4,0l0,0c-10-22.8-33.7-36.4-58.4-33.7l0,0c-49.3,5.4-81.5-50.4-52.2-90.5l0,0
	c14.7-20.1,14.7-47.4,0-67.4l0,0c-29.3-40,2.9-95.8,52.2-90.5l0,0c24.7,2.7,48.4-10.9,58.4-33.7l0,0
	C-32.2-203.3,32.2-203.3,52.2-157.9z"/>
</svg>
