<?xml version="1.0" encoding="utf-8"?>
<!-- Generator: Adobe Illustrator 19.1.0, SVG Export Plug-In . SVG Version: 6.00 Build 0)  -->
<svg version="1.1" baseProfile="basic" id="Layer_1"
	 xmlns="http://www.w3.org/2000/svg" xmlns:xlink="http://www.w3.org/1999/xlink" x="0px" y="0px" viewBox="0 0 432 288"
	 xml:space="preserve">
<path fill="none" stroke="#000000" stroke-miterlimit="10" d="M10.3-31.1L10.3-31.1c2,4.5,6.6,7.2,11.5,6.6l0,0
	c9.7-1.1,16,9.9,10.3,17.8l0,0c-2.9,3.9-2.9,9.3,0,13.3l0,0c5.8,7.9-0.6,18.8-10.3,17.8l0,0c-4.9-0.5-9.5,2.2-11.5,6.6l0,0
	C6.3,40-6.3,40-10.3,31.1l0,0c-2-4.5-6.6-7.2-11.5-6.6l0,0c-9.7,1.1-16-9.9-10.3-17.8l0,0c2.9-3.9,2.9-9.3,0-13.3l0,0
	c-5.8-7.9,0.6-18.8,10.3-17.8l0,0c4.9,0.5,9.5-2.2,11.5-6.6l0,0C-6.3-40,6.3-40,10.3-31.1z"/>
</svg>
